PathFileType	4	(X/Y/Z)	C:\Users\Basilio\Documents\Thesis Gigler\squatting_fais\c3dfiles\041\SJ_pre3\markers_experimental.trc
DataRate	CameraRate	NumFrames	NumMarkers	Units	OrigDataRate	OrigDataStartFrame	OrigNumFrames
200.000000	200.000000	4	62	mm	200.000000	1259	1679
Frame#	Time	FHD			LBHD			RBHD			C7			T10			CLAV			LSHO			LUUPA			LMUPA			LDUPA			LLEP			LMEP			LRAD			LUL			LRFIN			RSHO			RUPA1			RMUPA			RDUPA			RLEP			RMEP			RRAD			RUL			RUFIN			LASI			RASI			USACR			LSACR			RSACR			LTHI1			LTHI2			LTHI3			LTHI4			LLFC			LMFC			LTIB1			LTIB2			LTIB3			LTIB4			LLMAL			LMMAL			LHEE			LMT1			LMT2			LMT5			RTHI			RTHI2			RTHI3			RTHI4			RLFC			RMFC			RTIB1			RTIB2			RTIB3			RTIB4			RLMAL			RMMAL			RHEE			RMT1			RMT2			RMT5			*61			
		X1	Y1	Z1	X2	Y2	Z2	X3	Y3	Z3	X4	Y4	Z4	X5	Y5	Z5	X6	Y6	Z6	X7	Y7	Z7	X8	Y8	Z8	X9	Y9	Z9	X10	Y10	Z10	X11	Y11	Z11	X12	Y12	Z12	X13	Y13	Z13	X14	Y14	Z14	X15	Y15	Z15	X16	Y16	Z16	X17	Y17	Z17	X18	Y18	Z18	X19	Y19	Z19	X20	Y20	Z20	X21	Y21	Z21	X22	Y22	Z22	X23	Y23	Z23	X24	Y24	Z24	X25	Y25	Z25	X26	Y26	Z26	X27	Y27	Z27	X28	Y28	Z28	X29	Y29	Z29	X30	Y30	Z30	X31	Y31	Z31	X32	Y32	Z32	X33	Y33	Z33	X34	Y34	Z34	X35	Y35	Z35	X36	Y36	Z36	X37	Y37	Z37	X38	Y38	Z38	X39	Y39	Z39	X40	Y40	Z40	X41	Y41	Z41	X42	Y42	Z42	X43	Y43	Z43	X44	Y44	Z44	X45	Y45	Z45	X46	Y46	Z46	X47	Y47	Z47	X48	Y48	Z48	X49	Y49	Z49	X50	Y50	Z50	X51	Y51	Z51	X52	Y52	Z52	X53	Y53	Z53	X54	Y54	Z54	X55	Y55	Z55	X56	Y56	Z56	X57	Y57	Z57	X58	Y58	Z58	X59	Y59	Z59	X60	Y60	Z60	X61	Y61	Z61	X62	Y62	Z62	

1260	6.295	-177.0369110107422	1619.3623046875	-924.217468261719	-336.7811279296876	1522.40771484375	-1005.26611328125	-320.8657226562501	1525.641723632813	-852.4675292968752	-368.9967041015626	1406.40966796875	-940.810241699219	-444.2891845703126	1095.664428710938	-936.8328247070315	-207.3295593261719	1321.291625976563	-947.4573364257815	-275.2051696777344	1384.351684570313	-1120.798950195313	-359.3755798339844	1264.276489257813	-1258.250854492188	-350.8090820312501	1215.4873046875	-1257.136962890625	-393.7775268554689	1220.737548828125	-1299.818115234375	-416.7388610839845	1177.531982421875	-1324.922119140625	-481.1316528320314	1155.67578125	-1262.03857421875	-369.8845520019532	983.165222167969	-1147.960693359375	-368.7418823242188	933.887878417969	-1205.7548828125	-324.6076965332032	955.4483032226565	-1111.935302734375	-247.484115600586	1378.212524414063	-770.3958129882815	-324.6440429687501	1243.361206054688	-606.7542114257814	-292.6634826660157	1204.748413085938	-617.8617553710939	-319.7761230468751	1180.91796875	-572.8482666015626	-325.7854919433594	1132.64990234375	-556.3410644531251	-409.1854553222657	1125.671264648438	-600.1910400390626	-366.8674011230469	943.323669433594	-725.5780029296876	-328.5328063964844	931.162536621094	-771.9924316406252	-336.0411376953126	894.893493652344	-674.1677246093751	-288.2503051757813	896.5108032226565	-1048.739379882813	-292.7169799804688	875.7666015625002	-835.8828735351565	-467.7078552246095	975.367858886719	-940.8379516601565	-484.0718383789064	950.1821899414065	-969.2522583007815	-484.778778076172	948.5772094726565	-913.6859130859377	-350.0205993652344	703.9088745117189	-1151.083374023438	-283.6669006347657	652.5343627929689	-1164.9423828125	-242.0743865966797	673.1574707031251	-1155.630249023438	-284.1972961425782	589.4061889648439	-1162.122680664063	-199.4265441894532	446.0557250976564	-1179.854614257813	-182.1128845214844	408.0702209472657	-1071.749267578125	-246.656478881836	259.9252014160157	-1147.11962890625	-311.2579345703126	251.2357635498047	-1210.97265625	-279.4523010253907	229.3927917480469	-1186.296142578125	-319.5794372558594	159.7350158691407	-1161.168579101563	-418.2781066894532	103.599594116211	-1208.591186523438	-380.6820678710938	102.0569229125977	-1124.968872070313	-485.7420959472657	56.5143280029297	-1174.977661132813	-267.2833862304688	58.49681472778322	-1153.234985351563	-262.9014892578126	55.97343063354494	-1198.084350585938	-303.6209716796876	32.48384857177735	-1254.298461914063	-327.2774963378907	633.8941040039064	-743.5048217773439	-270.1426391601563	602.6303100585939	-729.6892700195314	-240.1798858642579	617.3237304687501	-731.9438476562501	-258.7459716796876	518.2860107421876	-743.5212402343751	-217.8933715820313	425.133758544922	-721.7339477539064	-193.7809143066407	393.661346435547	-831.8169555664065	-252.769760131836	264.7937011718751	-719.9161376953126	-364.2065429687501	241.6585083007813	-698.9843139648439	-324.2409667968751	217.101547241211	-702.9199829101564	-332.1313171386719	164.4815673828125	-729.6380615234376	-440.7393798828126	94.80844116210939	-705.7028198242189	-410.8768615722657	95.71441650390626	-787.6433715820315	-507.6441040039064	50.85948181152345	-751.3729248046876	-287.6865539550782	51.37117767333986	-743.3866577148439	-289.9313049316407	55.48161697387697	-691.3079833984376	-338.7663879394532	36.22587203979493	-644.5373535156251	-4216.977050781251	852.9450683593752	-3944.522460937501	
1261	6.3	-176.6614532470703	1618.6591796875	-924.5328369140627	-336.8981933593751	1521.941284179688	-1005.241333007813	-320.9825134277344	1525.283081054688	-852.4047851562502	-368.7148132324219	1406.198364257813	-941.0031738281252	-444.8458557128907	1095.137329101563	-937.2662353515627	-207.7561187744141	1320.335083007813	-947.353698730469	-275.0836791992188	1383.652465820313	-1120.952758789063	-358.9159240722657	1263.50390625	-1258.557495117188	-350.8351745605469	1214.748657226563	-1257.260375976563	-393.3828430175782	1220.017333984375	-1300.156127929688	-416.9923095703126	1177.218872070313	-1325.314697265625	-481.300018310547	1155.610229492188	-1262.566284179688	-370.6233215332032	982.7053833007815	-1148.431884765625	-369.7383422851563	933.4490966796877	-1206.242919921875	-325.6655578613282	954.9822387695315	-1112.562866210938	-247.9855346679688	1377.486450195313	-770.5397949218752	-325.5981140136719	1243.257446289063	-606.5922241210939	-293.6871032714844	1204.66650390625	-617.7043457031251	-320.9525451660157	1180.905151367188	-572.4699096679689	-326.8681335449219	1132.79931640625	-556.3938598632814	-410.5812377929689	1125.890625	-599.9510498046876	-368.6730041503907	943.5496826171877	-725.6485595703126	-329.2351989746094	930.9988403320315	-771.3044433593752	-337.9339904785157	895.003356933594	-673.7191162109376	-288.9284667968751	895.7390747070315	-1049.298828125	-292.9978332519532	875.892028808594	-835.569030761719	-468.1487121582032	974.5427856445315	-941.2963867187502	-484.4627380371095	949.3804321289065	-969.7295532226565	-485.1262817382814	947.8237915039065	-914.113220214844	-350.4475097656251	700.9295654296876	-1150.837646484375	-284.2872619628907	649.6204223632814	-1165.175537109375	-242.4608917236329	670.1243286132814	-1156.35693359375	-284.4636840820313	586.3814697265626	-1160.634033203125	-198.7327423095704	445.8360595703126	-1179.616577148438	-180.4580383300782	408.0054626464845	-1071.372924804688	-246.1887664794922	259.7037658691407	-1147.227905273438	-310.7288513183594	251.3788757324219	-1210.8369140625	-279.2467956542969	229.3325653076172	-1186.25439453125	-319.2832336425782	159.8205261230469	-1161.03369140625	-418.1882934570314	103.6283798217774	-1208.542846679688	-380.6506042480469	102.0729370117188	-1124.914184570313	-485.6465759277345	56.48813247680665	-1174.928955078125	-267.2406311035157	58.47856903076173	-1153.197631835938	-262.8605041503907	56.0027542114258	-1198.041015625	-303.6348571777344	32.58036422729493	-1254.3134765625	-326.9560852050782	632.4988403320314	-743.7919311523439	-269.5690307617188	601.1167602539064	-730.2328491210939	-239.799789428711	615.9380493164064	-732.2051391601564	-258.1605834960938	516.8910522460939	-744.6525878906251	-216.4291687011719	425.1953125000001	-722.0985107421876	-192.0728912353516	393.3986206054689	-832.4859008789065	-252.7139129638672	264.5660095214844	-720.3269653320314	-364.1117858886719	241.4518280029297	-699.0295410156251	-324.2177734375001	216.8445281982422	-703.1483764648439	-332.1672058105469	164.2382965087891	-729.7770385742189	-440.8604125976564	94.77674102783205	-705.7182006835939	-411.0223083496095	95.66464233398439	-787.705017089844	-507.7046813964845	50.79719924926759	-751.2866210937501	-287.7330322265626	51.3589324951172	-743.3570556640626	-289.9668273925782	55.56115722656251	-691.3202514648439	-338.7931518554688	36.22689437866212	-644.5355224609376	-4217.079589843751	853.0422973632815	-3944.603027343751	
1262	6.305	-176.7533416748047	1617.931396484375	-924.556335449219	-337.1675109863282	1521.927856445313	-1005.225830078125	-321.0368347167969	1525.2705078125	-852.3908691406252	-368.4752197265626	1406.20654296875	-941.1674804687502	-445.3309631347657	1094.911743164063	-937.665954589844	-208.1348876953126	1319.713500976563	-947.4094238281252	-274.9054870605469	1383.100708007813	-1121.017822265625	-358.2692871093751	1262.997436523438	-1258.954833984375	-350.7159729003907	1214.181030273438	-1257.295532226563	-393.1381835937501	1219.559814453125	-1300.47705078125	-416.8665161132814	1177.019775390625	-1325.623901367188	-481.4795837402345	1155.742065429688	-1263.090576171875	-372.0112304687501	982.4560546875002	-1148.590454101563	-370.6712951660157	933.2442626953127	-1206.771118164063	-326.1046447753907	954.5238037109377	-1113.00146484375	-248.4264678955079	1377.138549804688	-770.5623168945315	-326.5065612792969	1243.47607421875	-606.4969482421876	-294.7570190429688	1204.751342773438	-617.7117309570314	-321.9227294921876	1181.080444335938	-572.4155883789064	-328.2280273437501	1133.097412109375	-556.1915893554689	-411.776824951172	1126.450805664063	-599.8905639648439	-369.3551635742188	943.885437011719	-725.5079345703126	-330.4578247070313	931.527770996094	-771.4421386718752	-339.5625915527344	895.3218994140627	-673.6058349609376	-289.2818908691407	895.0712890625002	-1049.990844726563	-293.3657531738282	876.236511230469	-835.1251220703127	-468.5187377929689	974.1460571289065	-941.6872558593752	-484.6682128906251	948.8452758789065	-970.163024902344	-485.4318237304689	947.2312011718752	-914.6359863281252	-351.1599731445313	698.5305786132814	-1150.593994140625	-285.2589721679688	646.7899780273439	-1165.334106445313	-243.1725006103516	667.5262451171876	-1157.461791992188	-285.0356445312501	583.5302124023439	-1158.670043945313	-198.2117309570313	445.8388061523439	-1179.288696289063	-179.0533294677735	408.1560058593751	-1070.752563476563	-245.6642608642579	259.4958190917969	-1147.371215820313	-310.7289428710938	251.9122467041016	-1210.589477539063	-279.1994934082032	229.3222198486329	-1186.261840820313	-319.2327575683594	159.8282470703125	-1160.995483398438	-418.1647949218751	103.5950546264649	-1208.565551757813	-380.6790771484376	102.0317764282227	-1124.881469726563	-485.6917419433595	56.53752899169923	-1175.002197265625	-267.6090087890626	58.8639602661133	-1153.175170898438	-262.8792114257813	56.01456832885744	-1198.03173828125	-303.6235961914063	32.6306266784668	-1254.259521484375	-326.4534912109376	631.8820800781251	-744.3187255859376	-269.2568664550782	600.6008300781251	-730.5656738281251	-239.4016113281251	615.2156982421876	-732.5402832031251	-257.8455505371094	516.2977905273439	-745.2655639648439	-215.2112274169922	425.0112304687501	-722.5688476562501	-190.8555755615235	392.9309997558595	-832.916198730469	-252.7263336181641	264.5541687011719	-720.6104736328126	-364.1313781738282	241.4971923828126	-699.2280883789064	-324.2267761230469	216.8865356445313	-703.3018798828126	-332.2959899902344	164.2811126708985	-729.8906860351564	-440.9588928222657	94.84158325195314	-705.7921142578126	-411.0013427734376	95.6008758544922	-787.7261352539065	-507.7707519531251	50.7198829650879	-751.3052978515626	-287.8200683593751	51.36120605468751	-743.3913574218751	-290.6745605468751	55.78652572631837	-691.6591186523439	-338.8338928222657	36.28326797485352	-644.5550537109376	-4217.142089843751	853.0979003906252	-3944.635986328126	
1263	6.31	-176.4437103271485	1617.726318359375	-924.6822509765627	-337.4249572753907	1522.203735351563	-1005.085571289063	-321.1430358886719	1525.536865234375	-852.4048461914065	-368.3603210449219	1406.356811523438	-941.3280029296877	-445.6887207031251	1094.881713867188	-938.0044555664065	-208.6775054931641	1319.760620117188	-947.3049926757815	-274.6647338867188	1382.835571289063	-1121.160278320313	-357.5917663574219	1262.731567382813	-1259.306274414063	-350.7367858886719	1213.984985351563	-1257.172241210938	-392.6088867187501	1219.306762695313	-1300.721313476563	-416.6683044433595	1177.0625	-1325.828735351563	-481.6555786132814	1155.936401367188	-1263.66455078125	-372.5335693359376	982.2694091796877	-1148.9697265625	-371.5549621582032	933.0881347656252	-1207.286987304688	-326.6017150878907	954.3223876953127	-1113.559204101563	-249.0923767089844	1377.260498046875	-770.4786376953127	-327.1828002929688	1243.798706054688	-606.4810180664064	-295.3633422851563	1205.045288085938	-617.8052368164064	-322.7357177734376	1181.367065429688	-572.3578491210939	-329.2527465820313	1133.3720703125	-556.2969970703126	-412.891571044922	1127.24169921875	-599.7452392578126	-370.7128601074219	944.5899658203127	-725.7120971679689	-331.4798278808594	932.193054199219	-771.561218261719	-340.9214172363282	895.9841308593752	-673.6165771484376	-290.0384521484376	894.777282714844	-1050.604858398438	-293.6225280761719	877.0245361328127	-834.8704223632815	-468.7546386718751	973.900817871094	-941.9997558593752	-484.8817138671876	948.564392089844	-970.5609130859377	-485.5280761718751	946.9166259765627	-915.054382324219	-351.9579467773438	696.3695678710939	-1150.350708007813	-286.2275695800782	644.3280639648439	-1165.404174804688	-244.2254638671876	665.2838134765626	-1158.056762695313	-286.0981750488282	581.5084838867189	-1157.450805664063	-198.0528411865235	445.8208312988282	-1178.88720703125	-178.8252716064453	408.8008422851564	-1070.089477539063	-245.6195831298829	259.4978637695313	-1147.250122070313	-310.5021972656251	251.4872436523438	-1210.623413085938	-279.2526245117188	229.3350982666016	-1186.153442382813	-319.2865905761719	159.6694488525391	-1161.024291992188	-418.2000122070314	103.6139526367188	-1208.60205078125	-380.7645568847657	101.9591751098633	-1124.796875	-485.7717285156251	56.41164779663087	-1175.016967773438	-267.2210998535157	58.50124359130861	-1152.984008789063	-262.9397277832032	56.11536026000978	-1197.926513671875	-303.6241149902344	32.74327087402344	-1254.239624023438	-326.0414428710938	632.0307006835939	-744.7441406250001	-269.1462707519532	600.7843627929689	-730.8534545898439	-239.1455688476563	615.3956298828126	-732.9317626953126	-257.6732482910157	516.3801269531251	-745.4709472656251	-214.5021057128907	424.9126281738282	-722.9924316406251	-190.5235900878907	392.5758056640626	-833.245056152344	-252.8098754882813	264.5918273925782	-720.6715087890626	-364.2379760742188	241.7373657226563	-699.5214233398439	-324.3122863769532	216.9945068359376	-703.4499511718751	-332.3576965332032	164.3434295654297	-729.9060668945314	-440.9970703125001	94.90423583984376	-705.8993530273439	-411.0342407226564	95.62944793701173	-787.859313964844	-507.721893310547	50.73226928710939	-751.3005981445314	-287.9328613281251	51.35202407836915	-743.4086914062501	-290.6075134277344	55.8348731994629	-691.6799316406251	-338.8123779296876	36.31404495239259	-644.5780639648439	-4217.057617187501	853.0036621093752	-3944.631591796876	
